<svg xmlns="http://www.w3.org/2000/svg" xmlns:xlink="http://www.w3.org/1999/xlink" width="500" zoomAndPan="magnify" viewBox="0 0 375 374.999991" height="500" preserveAspectRatio="xMidYMid meet" version="1.0"><defs><g/></defs><path fill="#ffbd59" d="M 198.699219 38.726562 L 188.238281 39.136719 C 167.300781 40.785156 146.238281 47.367188 125.050781 58.894531 C 117.988281 62.734375 110.914062 67.125 103.824219 72.066406 L 94.40625 80.097656 C 88.417969 85.574219 83.019531 91.28125 78.203125 97.226562 C 73.390625 103.171875 69.164062 109.351562 65.523438 115.769531 L 60.503906 125.570312 C 57.449219 132.21875 54.984375 139.109375 53.101562 146.230469 L 45.132812 174.558594 L 43.429688 183.640625 C 42.535156 189.769531 42.125 196.054688 42.191406 202.496094 L 42.65625 212.269531 C 44.871094 229.027344 46.777344 239.265625 48.371094 242.984375 C 52.140625 252.871094 56.601562 262.003906 61.757812 270.382812 C 72.074219 287.140625 85.171875 300.882812 101.050781 311.605469 C 119.488281 323.027344 135.59375 330.042969 149.371094 332.648438 C 176.113281 338.867188 198.105469 341.273438 215.347656 339.871094 C 234.503906 338.636719 250.601562 333.714844 263.636719 325.101562 C 276.246094 316.210938 288.183594 304.324219 299.449219 289.445312 C 309.230469 276.628906 319.101562 256.945312 329.054688 230.394531 C 334.554688 214.285156 337.007812 197.949219 336.410156 181.382812 C 336.085938 165.574219 331.003906 145.371094 321.164062 120.773438 L 313.476562 105.871094 C 307.882812 96.363281 301.359375 87.699219 293.902344 79.878906 C 286.445312 72.0625 278.058594 65.085938 268.742188 58.960938 L 254.066406 50.402344 C 231.605469 41.800781 213.148438 37.90625 198.699219 38.726562 Z M 198.699219 38.726562 " fill-opacity="1" fill-rule="nonzero"/><g fill="#ffffff" fill-opacity="1"><g transform="translate(30.347414, 137.064334)"><g><path d="M 43.625 -31.5 C 44.101562 -31.132812 44.8125 -30.332031 45.75 -29.09375 C 46.695312 -27.863281 47.578125 -26.210938 48.390625 -24.140625 C 49.203125 -22.066406 49.554688 -19.554688 49.453125 -16.609375 C 49.453125 -14.878906 49.070312 -12.953125 48.3125 -10.828125 C 47.550781 -8.703125 46.539062 -6.90625 45.28125 -5.4375 C 43.914062 -3.863281 42.285156 -2.585938 40.390625 -1.609375 C 38.503906 -0.640625 36.457031 -0.15625 34.25 -0.15625 L 18.1875 -0.234375 L 8.1875 -0.234375 C 6.976562 -0.234375 6.019531 -0.484375 5.3125 -0.984375 C 4.601562 -1.484375 4.117188 -1.914062 3.859375 -2.28125 C 3.222656 -3.019531 2.851562 -3.71875 2.75 -4.375 C 2.644531 -5.03125 2.59375 -5.4375 2.59375 -5.59375 L 2.59375 -57.328125 C 2.59375 -57.328125 2.617188 -57.640625 2.671875 -58.265625 C 2.722656 -58.898438 3.015625 -59.5625 3.546875 -60.25 C 4.066406 -60.925781 4.679688 -61.515625 5.390625 -62.015625 C 6.097656 -62.515625 7.03125 -62.765625 8.1875 -62.765625 L 34.015625 -62.765625 C 36.585938 -62.765625 38.804688 -62.273438 40.671875 -61.296875 C 42.535156 -60.328125 44.148438 -59.03125 45.515625 -57.40625 C 46.773438 -55.9375 47.734375 -54.21875 48.390625 -52.25 C 49.046875 -50.28125 49.375 -48.300781 49.375 -46.3125 C 49.375 -42.945312 48.941406 -40.210938 48.078125 -38.109375 C 47.210938 -36.015625 46.316406 -34.453125 45.390625 -33.421875 C 44.472656 -32.398438 43.882812 -31.757812 43.625 -31.5 Z M 30.640625 -46.546875 C 30.640625 -47.378906 30.335938 -48.097656 29.734375 -48.703125 C 29.128906 -49.304688 28.378906 -49.609375 27.484375 -49.609375 L 22.765625 -49.609375 C 22.179688 -49.609375 21.890625 -49.320312 21.890625 -48.75 L 21.890625 -43.234375 C 21.890625 -42.710938 22.179688 -42.453125 22.765625 -42.453125 L 27.484375 -42.453125 C 28.378906 -42.453125 29.128906 -42.75 29.734375 -43.34375 C 30.335938 -43.945312 30.640625 -44.671875 30.640625 -45.515625 Z M 30.640625 -20.15625 C 30.640625 -21.050781 30.335938 -21.800781 29.734375 -22.40625 C 29.128906 -23.007812 28.378906 -23.3125 27.484375 -23.3125 L 22.765625 -23.3125 C 22.179688 -23.3125 21.890625 -23.046875 21.890625 -22.515625 L 21.890625 -15.59375 C 21.890625 -15.382812 21.96875 -15.1875 22.125 -15 C 22.28125 -14.8125 22.492188 -14.71875 22.765625 -14.71875 L 27.484375 -14.71875 C 28.378906 -14.71875 29.128906 -15.03125 29.734375 -15.65625 C 30.335938 -16.289062 30.640625 -17.03125 30.640625 -17.875 Z M 30.640625 -20.15625 "/></g></g></g><g fill="#ffffff" fill-opacity="1"><g transform="translate(81.138426, 137.064334)"><g><path d="M 27.015625 -63.9375 C 30.316406 -63.9375 33.503906 -63.332031 36.578125 -62.125 C 39.648438 -60.925781 42.394531 -59.257812 44.8125 -57.125 C 47.226562 -55 49.144531 -52.519531 50.5625 -49.6875 C 51.976562 -46.851562 52.6875 -43.8125 52.6875 -40.5625 L 52.6875 -22.59375 C 52.6875 -19.238281 51.976562 -16.101562 50.5625 -13.1875 C 49.144531 -10.269531 47.226562 -7.722656 44.8125 -5.546875 C 42.394531 -3.367188 39.648438 -1.675781 36.578125 -0.46875 C 33.503906 0.738281 30.316406 1.34375 27.015625 1.34375 C 23.804688 1.34375 20.664062 0.738281 17.59375 -0.46875 C 14.53125 -1.675781 11.773438 -3.367188 9.328125 -5.546875 C 6.890625 -7.722656 4.945312 -10.269531 3.5 -13.1875 C 2.0625 -16.101562 1.34375 -19.238281 1.34375 -22.59375 L 1.34375 -40.5625 C 1.34375 -43.8125 2.0625 -46.851562 3.5 -49.6875 C 4.945312 -52.519531 6.890625 -55 9.328125 -57.125 C 11.773438 -59.257812 14.53125 -60.925781 17.59375 -62.125 C 20.664062 -63.332031 23.804688 -63.9375 27.015625 -63.9375 Z M 32.28125 -23.390625 L 32.28125 -39.140625 C 32.28125 -40.554688 31.753906 -41.773438 30.703125 -42.796875 C 29.660156 -43.828125 28.429688 -44.34375 27.015625 -44.34375 C 25.546875 -44.34375 24.3125 -43.828125 23.3125 -42.796875 C 22.3125 -41.773438 21.8125 -40.554688 21.8125 -39.140625 L 21.8125 -23.390625 C 21.8125 -22.078125 22.3125 -20.90625 23.3125 -19.875 C 24.3125 -18.851562 25.546875 -18.34375 27.015625 -18.34375 C 28.429688 -18.34375 29.660156 -18.851562 30.703125 -19.875 C 31.753906 -20.90625 32.28125 -22.078125 32.28125 -23.390625 Z M 32.28125 -23.390625 "/></g></g></g><g fill="#ffffff" fill-opacity="1"><g transform="translate(133.58303, 137.064334)"><g><path d="M 29.453125 -62.921875 C 32.546875 -62.921875 35.414062 -62.34375 38.0625 -61.1875 C 40.71875 -60.03125 43.03125 -58.453125 45 -56.453125 C 46.96875 -54.460938 48.503906 -52.15625 49.609375 -49.53125 C 50.710938 -46.90625 51.265625 -44.097656 51.265625 -41.109375 L 51.265625 -22.125 C 51.265625 -19.132812 50.710938 -16.328125 49.609375 -13.703125 C 48.503906 -11.078125 46.96875 -8.753906 45 -6.734375 C 43.03125 -4.710938 40.71875 -3.125 38.0625 -1.96875 C 35.414062 -0.8125 32.546875 -0.234375 29.453125 -0.234375 L 8.265625 -0.234375 C 6.640625 -0.234375 5.285156 -0.835938 4.203125 -2.046875 C 3.128906 -3.253906 2.59375 -4.566406 2.59375 -5.984375 L 2.59375 -57.25 C 2.59375 -58.71875 3.128906 -60.03125 4.203125 -61.1875 C 5.285156 -62.34375 6.640625 -62.921875 8.265625 -62.921875 Z M 32.046875 -29.6875 L 32.046875 -33.46875 C 32.046875 -35.144531 31.507812 -36.519531 30.4375 -37.59375 C 29.363281 -38.675781 28.007812 -39.21875 26.375 -39.21875 L 22.59375 -39.21875 C 22.332031 -39.21875 22.082031 -39.097656 21.84375 -38.859375 C 21.613281 -38.628906 21.5 -38.25 21.5 -37.71875 L 21.5 -25.4375 C 21.5 -24.96875 21.613281 -24.625 21.84375 -24.40625 C 22.082031 -24.195312 22.332031 -24.09375 22.59375 -24.09375 L 26.375 -24.09375 C 28.007812 -24.09375 29.363281 -24.617188 30.4375 -25.671875 C 31.507812 -26.722656 32.046875 -28.0625 32.046875 -29.6875 Z M 32.046875 -29.6875 "/></g></g></g><g fill="#ffffff" fill-opacity="1"><g transform="translate(180.515263, 137.064334)"><g><path d="M 62.453125 -56.703125 L 43.78125 -30 L 43.78125 -4.484375 C 43.78125 -3.171875 43.242188 -2.09375 42.171875 -1.25 C 41.097656 -0.414062 39.957031 0 38.75 0 L 25.984375 0 C 24.773438 0 23.644531 -0.414062 22.59375 -1.25 C 21.550781 -2.09375 21.03125 -3.171875 21.03125 -4.484375 L 21.03125 -30 L 2.359375 -56.703125 C 1.679688 -57.171875 1.34375 -57.984375 1.34375 -59.140625 C 1.34375 -60.347656 1.75 -61.304688 2.5625 -62.015625 C 3.375 -62.722656 4.28125 -63.078125 5.28125 -63.078125 L 19.609375 -63.078125 C 20.023438 -63.078125 20.519531 -62.984375 21.09375 -62.796875 C 21.675781 -62.617188 22.148438 -62.210938 22.515625 -61.578125 L 32.359375 -47.25 L 42.765625 -61.578125 C 43.441406 -62.578125 44.253906 -63.078125 45.203125 -63.078125 L 59.453125 -63.078125 C 60.503906 -63.078125 61.421875 -62.722656 62.203125 -62.015625 C 62.992188 -61.304688 63.390625 -60.347656 63.390625 -59.140625 C 63.390625 -58.617188 63.296875 -58.132812 63.109375 -57.6875 C 62.929688 -57.238281 62.710938 -56.910156 62.453125 -56.703125 Z M 62.453125 -56.703125 "/></g></g></g><g fill="#ffffff" fill-opacity="1"><g transform="translate(64.849469, 215.481209)"><g><path d="M 80.5625 -5.4375 C 80.5625 -3.96875 80.035156 -2.691406 78.984375 -1.609375 C 77.929688 -0.535156 76.644531 0 75.125 0 L 64.65625 0 C 63.34375 -0.0507812 62.210938 -0.492188 61.265625 -1.328125 C 60.316406 -2.171875 59.710938 -3.222656 59.453125 -4.484375 L 55.671875 -26.703125 L 55.28125 -28.1875 L 55.125 -27.40625 L 52.046875 -4.796875 C 51.890625 -3.484375 51.300781 -2.351562 50.28125 -1.40625 C 49.257812 -0.46875 48.066406 0 46.703125 0 L 35.359375 0 C 33.992188 0 32.796875 -0.46875 31.765625 -1.40625 C 30.742188 -2.351562 30.179688 -3.484375 30.078125 -4.796875 L 26.703125 -28.984375 L 26.296875 -26.703125 L 22.359375 -4.484375 C 22.148438 -3.222656 21.570312 -2.171875 20.625 -1.328125 C 19.6875 -0.492188 18.5625 -0.0507812 17.25 0 L 6.6875 0 C 5.21875 0 3.957031 -0.535156 2.90625 -1.609375 C 1.863281 -2.691406 1.34375 -3.96875 1.34375 -5.4375 C 1.34375 -5.539062 1.34375 -5.671875 1.34375 -5.828125 C 1.34375 -5.984375 1.367188 -6.164062 1.421875 -6.375 L 2.4375 -12.84375 L 5.90625 -33.46875 L 9.765625 -57.015625 C 10.078125 -58.691406 10.875 -60.066406 12.15625 -61.140625 C 13.445312 -62.222656 14.957031 -62.765625 16.6875 -62.765625 L 30.3125 -62.765625 C 32.15625 -62.710938 33.742188 -62.09375 35.078125 -60.90625 C 36.421875 -59.726562 37.195312 -58.273438 37.40625 -56.546875 L 39.53125 -38.515625 L 39.53125 -38.59375 C 39.53125 -38.21875 39.675781 -37.882812 39.96875 -37.59375 C 40.257812 -37.3125 40.585938 -37.171875 40.953125 -37.171875 C 41.734375 -37.171875 42.175781 -37.5625 42.28125 -38.34375 L 45.4375 -57.015625 C 45.695312 -58.691406 46.484375 -60.066406 47.796875 -61.140625 C 49.109375 -62.222656 50.632812 -62.765625 52.375 -62.765625 L 66 -62.765625 C 67.78125 -62.710938 69.328125 -62.109375 70.640625 -60.953125 C 71.953125 -59.796875 72.765625 -58.378906 73.078125 -56.703125 C 74.335938 -48.191406 75.382812 -41.007812 76.21875 -35.15625 C 77.0625 -29.300781 77.757812 -24.523438 78.3125 -20.828125 C 78.863281 -17.128906 79.296875 -14.242188 79.609375 -12.171875 C 79.929688 -10.097656 80.15625 -8.597656 80.28125 -7.671875 C 80.414062 -6.753906 80.492188 -6.175781 80.515625 -5.9375 C 80.546875 -5.707031 80.5625 -5.539062 80.5625 -5.4375 Z M 80.5625 -5.4375 "/></g></g></g><g fill="#ffffff" fill-opacity="1"><g transform="translate(144.38259, 215.481209)"><g><path d="M 47.953125 -62.84375 C 49.210938 -62.84375 50.300781 -62.367188 51.21875 -61.421875 C 52.144531 -60.472656 52.609375 -59.375 52.609375 -58.125 L 52.609375 -21.5 C 52.453125 -18.289062 51.648438 -15.296875 50.203125 -12.515625 C 48.753906 -9.734375 46.835938 -7.289062 44.453125 -5.1875 C 42.066406 -3.09375 39.363281 -1.453125 36.34375 -0.265625 C 33.320312 0.910156 30.1875 1.5 26.9375 1.5 C 23.625 1.5 20.429688 0.867188 17.359375 -0.390625 C 14.285156 -1.648438 11.554688 -3.367188 9.171875 -5.546875 C 6.785156 -7.722656 4.882812 -10.269531 3.46875 -13.1875 C 2.050781 -16.101562 1.34375 -19.210938 1.34375 -22.515625 L 1.34375 -59.921875 C 1.34375 -60.710938 1.617188 -61.382812 2.171875 -61.9375 C 2.722656 -62.488281 3.363281 -62.765625 4.09375 -62.765625 L 21.34375 -62.765625 C 22.070312 -62.765625 22.710938 -62.488281 23.265625 -61.9375 C 23.816406 -61.382812 24.09375 -60.710938 24.09375 -59.921875 L 24.09375 -22.359375 C 24.09375 -21.421875 24.429688 -20.625 25.109375 -19.96875 C 25.796875 -19.3125 26.585938 -18.984375 27.484375 -18.984375 C 28.429688 -18.984375 29.242188 -19.3125 29.921875 -19.96875 C 30.609375 -20.625 30.953125 -21.421875 30.953125 -22.359375 L 30.953125 -58.125 C 30.953125 -59.375 31.394531 -60.472656 32.28125 -61.421875 C 33.175781 -62.367188 34.253906 -62.84375 35.515625 -62.84375 Z M 47.953125 -62.84375 "/></g></g></g><g fill="#ffffff" fill-opacity="1"><g transform="translate(198.323426, 215.481209)"><g><path d="M 27.5625 -65.828125 C 31.601562 -65.828125 35.023438 -65.378906 37.828125 -64.484375 C 40.640625 -63.597656 42.960938 -62.457031 44.796875 -61.0625 C 46.640625 -59.675781 48.085938 -58.195312 49.140625 -56.625 C 50.191406 -55.050781 50.96875 -53.550781 51.46875 -52.125 C 51.96875 -50.707031 52.296875 -49.582031 52.453125 -48.75 C 52.554688 -48.164062 52.472656 -47.675781 52.203125 -47.28125 C 51.941406 -46.894531 51.601562 -46.675781 51.1875 -46.625 L 31.890625 -43.9375 C 31.003906 -43.9375 30.398438 -44.382812 30.078125 -45.28125 C 29.710938 -46.332031 29.082031 -47.109375 28.1875 -47.609375 C 27.300781 -48.109375 26.539062 -48.359375 25.90625 -48.359375 C 25.070312 -48.359375 24.140625 -48 23.109375 -47.28125 C 22.085938 -46.570312 21.578125 -45.457031 21.578125 -43.9375 C 21.578125 -42.675781 21.929688 -41.742188 22.640625 -41.140625 C 23.347656 -40.535156 24.171875 -40.140625 25.109375 -39.953125 C 26.054688 -39.773438 26.875 -39.6875 27.5625 -39.6875 C 28.875 -39.6875 30.578125 -39.671875 32.671875 -39.640625 C 34.773438 -39.617188 36.992188 -39.359375 39.328125 -38.859375 C 41.671875 -38.359375 43.878906 -37.4375 45.953125 -36.09375 C 48.023438 -34.757812 49.71875 -32.789062 51.03125 -30.1875 C 52.34375 -27.59375 53 -24.171875 53 -19.921875 C 53 -15.617188 52.300781 -11.992188 50.90625 -9.046875 C 49.519531 -6.109375 47.707031 -3.773438 45.46875 -2.046875 C 43.238281 -0.316406 40.8125 0.925781 38.1875 1.6875 C 35.5625 2.445312 33.019531 2.828125 30.5625 2.828125 C 25.625 2.828125 21.5 2.34375 18.1875 1.375 C 14.882812 0.40625 12.164062 -0.914062 10.03125 -2.59375 C 7.90625 -4.28125 6.210938 -6.171875 4.953125 -8.265625 C 3.703125 -10.367188 2.679688 -12.550781 1.890625 -14.8125 C 1.203125 -16.007812 1.460938 -16.742188 2.671875 -17.015625 L 23.78125 -19.53125 C 24.363281 -19.632812 24.769531 -19.609375 25 -19.453125 C 25.238281 -19.296875 25.410156 -19.0625 25.515625 -18.75 C 25.929688 -17.164062 26.570312 -16.175781 27.4375 -15.78125 C 28.3125 -15.394531 29.0625 -15.203125 29.6875 -15.203125 C 30.789062 -15.203125 31.785156 -15.609375 32.671875 -16.421875 C 33.566406 -17.234375 34.015625 -18.269531 34.015625 -19.53125 C 34.015625 -20.84375 33.554688 -21.863281 32.640625 -22.59375 C 31.722656 -23.332031 30.609375 -23.703125 29.296875 -23.703125 L 24.5625 -23.703125 C 20.15625 -23.703125 16.191406 -24.539062 12.671875 -26.21875 C 9.160156 -27.90625 6.394531 -30.363281 4.375 -33.59375 C 2.351562 -36.820312 1.34375 -40.71875 1.34375 -45.28125 C 1.34375 -48.957031 1.945312 -52.015625 3.15625 -54.453125 C 4.363281 -56.898438 5.9375 -58.867188 7.875 -60.359375 C 9.8125 -61.859375 11.882812 -63 14.09375 -63.78125 C 16.300781 -64.570312 18.398438 -65.097656 20.390625 -65.359375 C 22.390625 -65.617188 24.046875 -65.757812 25.359375 -65.78125 C 26.671875 -65.8125 27.40625 -65.828125 27.5625 -65.828125 Z M 27.5625 -65.828125 "/></g></g></g><g fill="#ffffff" fill-opacity="1"><g transform="translate(251.082999, 215.481209)"><g><path d="M 8.1875 0.078125 C 6.664062 0.078125 5.351562 -0.5 4.25 -1.65625 C 3.144531 -2.8125 2.59375 -4.125 2.59375 -5.59375 L 2.59375 -57.328125 C 2.59375 -59.003906 3.144531 -60.367188 4.25 -61.421875 C 5.351562 -62.472656 6.664062 -63 8.1875 -63 L 17.953125 -63 C 19.628906 -63 20.992188 -62.472656 22.046875 -61.421875 C 23.097656 -60.367188 23.625 -59.003906 23.625 -57.328125 L 23.625 -5.59375 C 23.625 -4.125 23.097656 -2.8125 22.046875 -1.65625 C 20.992188 -0.5 19.628906 0.078125 17.953125 0.078125 Z M 8.1875 0.078125 "/></g></g></g><g fill="#ffffff" fill-opacity="1"><g transform="translate(276.517856, 215.481209)"><g><path d="M 33.390625 -24.96875 L 51.34375 -24.96875 C 51.601562 -24.96875 51.851562 -24.847656 52.09375 -24.609375 C 52.332031 -24.367188 52.453125 -24.117188 52.453125 -23.859375 L 52.453125 -22.921875 C 52.453125 -19.554688 51.738281 -16.429688 50.3125 -13.546875 C 48.894531 -10.660156 46.992188 -8.125 44.609375 -5.9375 C 42.222656 -3.757812 39.503906 -2.066406 36.453125 -0.859375 C 33.410156 0.335938 30.238281 0.9375 26.9375 0.9375 C 23.726562 0.9375 20.585938 0.335938 17.515625 -0.859375 C 14.453125 -2.066406 11.710938 -3.757812 9.296875 -5.9375 C 6.878906 -8.125 4.945312 -10.660156 3.5 -13.546875 C 2.0625 -16.429688 1.34375 -19.554688 1.34375 -22.921875 L 1.34375 -40.71875 C 1.34375 -43.96875 2.0625 -46.992188 3.5 -49.796875 C 4.945312 -52.609375 6.878906 -55.078125 9.296875 -57.203125 C 11.710938 -59.335938 14.453125 -61.007812 17.515625 -62.21875 C 20.585938 -63.425781 23.726562 -64.03125 26.9375 -64.03125 C 30.238281 -64.03125 33.410156 -63.425781 36.453125 -62.21875 C 39.503906 -61.007812 42.222656 -59.335938 44.609375 -57.203125 C 46.992188 -55.078125 48.894531 -52.609375 50.3125 -49.796875 C 51.738281 -46.992188 52.453125 -43.96875 52.453125 -40.71875 L 52.453125 -39.296875 C 52.453125 -38.984375 52.332031 -38.707031 52.09375 -38.46875 C 51.851562 -38.226562 51.601562 -38.109375 51.34375 -38.109375 L 33.390625 -38.109375 C 33.023438 -38.109375 32.722656 -38.238281 32.484375 -38.5 C 32.242188 -38.769531 32.125 -39.0625 32.125 -39.375 L 32.125 -39.765625 C 32.125 -40.503906 31.914062 -41.238281 31.5 -41.96875 C 31.082031 -42.707031 30.582031 -43.257812 30 -43.625 C 28.582031 -44.46875 27.242188 -44.742188 25.984375 -44.453125 C 24.722656 -44.160156 23.695312 -43.539062 22.90625 -42.59375 C 22.125 -41.65625 21.734375 -40.554688 21.734375 -39.296875 L 21.734375 -23.703125 C 21.734375 -22.390625 22.234375 -21.21875 23.234375 -20.1875 C 24.234375 -19.164062 25.46875 -18.65625 26.9375 -18.65625 C 28.300781 -18.65625 29.503906 -19.164062 30.546875 -20.1875 C 31.597656 -21.21875 32.125 -22.390625 32.125 -23.703125 C 32.125 -24.546875 32.546875 -24.96875 33.390625 -24.96875 Z M 33.390625 -24.96875 "/></g></g></g><g fill="#ffffff" fill-opacity="1"><g transform="translate(123.883648, 291.094301)"><g><path d="M 51.578125 -6.6875 C 52.003906 -4.851562 51.675781 -3.316406 50.59375 -2.078125 C 49.519531 -0.847656 48.222656 -0.234375 46.703125 -0.234375 L 33.9375 -0.234375 C 32.625 -0.234375 31.242188 -0.785156 29.796875 -1.890625 C 28.359375 -2.992188 27.429688 -4.4375 27.015625 -6.21875 L 24.96875 -15.828125 L 24.328125 -19.0625 C 24.328125 -19.320312 24.171875 -19.453125 23.859375 -19.453125 C 23.597656 -19.453125 23.46875 -19.296875 23.46875 -18.984375 L 23.46875 -5.828125 C 23.46875 -5.191406 23.425781 -4.613281 23.34375 -4.09375 C 23.269531 -3.570312 22.863281 -2.914062 22.125 -2.125 C 21.601562 -1.5 20.972656 -1.023438 20.234375 -0.703125 C 19.503906 -0.390625 18.742188 -0.234375 17.953125 -0.234375 L 7.875 -0.234375 C 6.351562 -0.234375 5.050781 -0.769531 3.96875 -1.84375 C 2.894531 -2.925781 2.359375 -4.203125 2.359375 -5.671875 L 2.359375 -55.828125 C 2.359375 -58.085938 2.894531 -59.820312 3.96875 -61.03125 C 5.050781 -62.238281 6.351562 -62.84375 7.875 -62.84375 L 36.296875 -62.921875 C 39.191406 -62.921875 41.804688 -62.117188 44.140625 -60.515625 C 46.472656 -58.921875 48.332031 -56.664062 49.71875 -53.75 C 51.113281 -50.832031 51.8125 -47.351562 51.8125 -43.3125 C 51.8125 -39.894531 51.300781 -36.882812 50.28125 -34.28125 C 49.257812 -31.6875 47.878906 -29.367188 46.140625 -27.328125 C 46.359375 -27.015625 46.546875 -26.515625 46.703125 -25.828125 Z M 30.640625 -41.265625 C 30.640625 -42.578125 30.175781 -43.691406 29.25 -44.609375 C 28.332031 -45.523438 27.242188 -45.984375 25.984375 -45.984375 L 24.484375 -45.984375 C 23.804688 -45.984375 23.46875 -45.644531 23.46875 -44.96875 L 23.46875 -36.546875 C 23.46875 -35.859375 23.804688 -35.515625 24.484375 -35.515625 L 25.984375 -35.515625 C 27.242188 -35.515625 28.332031 -35.972656 29.25 -36.890625 C 30.175781 -37.804688 30.640625 -38.894531 30.640625 -40.15625 Z M 30.640625 -41.265625 "/></g></g></g><g fill="#ffffff" fill-opacity="1"><g transform="translate(176.721969, 291.094301)"><g><path d="M 60.09375 -6.609375 C 60.351562 -5.453125 60.242188 -4.3125 59.765625 -3.1875 C 59.296875 -2.0625 58.535156 -1.207031 57.484375 -0.625 C 56.804688 -0.207031 56.019531 0 55.125 0 L 44.421875 0 C 42.941406 0 41.832031 -0.441406 41.09375 -1.328125 C 40.363281 -2.222656 39.710938 -3.40625 39.140625 -4.875 L 36.78125 -11.03125 L 24.734375 -11.03125 L 22.4375 -4.875 C 21.863281 -3.40625 21.207031 -2.238281 20.46875 -1.375 C 19.738281 -0.507812 18.640625 -0.078125 17.171875 -0.078125 L 6.453125 -0.078125 C 5.617188 -0.078125 4.9375 -0.207031 4.40625 -0.46875 C 3.25 -1 2.394531 -1.851562 1.84375 -3.03125 C 1.300781 -4.207031 1.1875 -5.425781 1.5 -6.6875 L 15.671875 -58.75 C 15.828125 -59.476562 16.101562 -60.078125 16.5 -60.546875 C 16.894531 -61.023438 17.273438 -61.394531 17.640625 -61.65625 C 18.484375 -62.34375 19.507812 -62.6875 20.71875 -62.6875 L 41.34375 -62.6875 C 41.914062 -62.6875 42.539062 -62.582031 43.21875 -62.375 C 43.90625 -62.164062 44.539062 -61.769531 45.125 -61.1875 C 45.695312 -60.5625 46.078125 -59.921875 46.265625 -59.265625 C 46.453125 -58.609375 46.597656 -58.039062 46.703125 -57.5625 Z M 34.5 -29.21875 C 34.863281 -29.21875 35.148438 -29.375 35.359375 -29.6875 C 35.566406 -30 35.617188 -30.34375 35.515625 -30.71875 L 33.46875 -36.0625 L 31.8125 -40.15625 C 31.65625 -40.6875 31.3125 -40.953125 30.78125 -40.953125 C 30.257812 -40.953125 29.921875 -40.6875 29.765625 -40.15625 L 28.1875 -36.0625 L 26.140625 -30.71875 C 25.929688 -30.34375 25.957031 -30 26.21875 -29.6875 C 26.488281 -29.375 26.804688 -29.21875 27.171875 -29.21875 Z M 34.5 -29.21875 "/></g></g></g><g fill="#ffffff" fill-opacity="1"><g transform="translate(236.726163, 291.094301)"><g><path d="M 29.453125 -62.921875 C 32.546875 -62.921875 35.414062 -62.34375 38.0625 -61.1875 C 40.71875 -60.03125 43.03125 -58.453125 45 -56.453125 C 46.96875 -54.460938 48.503906 -52.15625 49.609375 -49.53125 C 50.710938 -46.90625 51.265625 -44.097656 51.265625 -41.109375 L 51.265625 -22.125 C 51.265625 -19.132812 50.710938 -16.328125 49.609375 -13.703125 C 48.503906 -11.078125 46.96875 -8.753906 45 -6.734375 C 43.03125 -4.710938 40.71875 -3.125 38.0625 -1.96875 C 35.414062 -0.8125 32.546875 -0.234375 29.453125 -0.234375 L 8.265625 -0.234375 C 6.640625 -0.234375 5.285156 -0.835938 4.203125 -2.046875 C 3.128906 -3.253906 2.59375 -4.566406 2.59375 -5.984375 L 2.59375 -57.25 C 2.59375 -58.71875 3.128906 -60.03125 4.203125 -61.1875 C 5.285156 -62.34375 6.640625 -62.921875 8.265625 -62.921875 Z M 32.046875 -29.6875 L 32.046875 -33.46875 C 32.046875 -35.144531 31.507812 -36.519531 30.4375 -37.59375 C 29.363281 -38.675781 28.007812 -39.21875 26.375 -39.21875 L 22.59375 -39.21875 C 22.332031 -39.21875 22.082031 -39.097656 21.84375 -38.859375 C 21.613281 -38.628906 21.5 -38.25 21.5 -37.71875 L 21.5 -25.4375 C 21.5 -24.96875 21.613281 -24.625 21.84375 -24.40625 C 22.082031 -24.195312 22.332031 -24.09375 22.59375 -24.09375 L 26.375 -24.09375 C 28.007812 -24.09375 29.363281 -24.617188 30.4375 -25.671875 C 31.507812 -26.722656 32.046875 -28.0625 32.046875 -29.6875 Z M 32.046875 -29.6875 "/></g></g></g><g fill="#ffffff" fill-opacity="1"><g transform="translate(289.170812, 291.094301)"><g><path d="M 8.1875 0.078125 C 6.664062 0.078125 5.351562 -0.5 4.25 -1.65625 C 3.144531 -2.8125 2.59375 -4.125 2.59375 -5.59375 L 2.59375 -57.328125 C 2.59375 -59.003906 3.144531 -60.367188 4.25 -61.421875 C 5.351562 -62.472656 6.664062 -63 8.1875 -63 L 17.953125 -63 C 19.628906 -63 20.992188 -62.472656 22.046875 -61.421875 C 23.097656 -60.367188 23.625 -59.003906 23.625 -57.328125 L 23.625 -5.59375 C 23.625 -4.125 23.097656 -2.8125 22.046875 -1.65625 C 20.992188 -0.5 19.628906 0.078125 17.953125 0.078125 Z M 8.1875 0.078125 "/></g></g></g><g fill="#ffffff" fill-opacity="1"><g transform="translate(313.818169, 291.094301)"><g><path d="M 27.015625 -63.9375 C 30.316406 -63.9375 33.503906 -63.332031 36.578125 -62.125 C 39.648438 -60.925781 42.394531 -59.257812 44.8125 -57.125 C 47.226562 -55 49.144531 -52.519531 50.5625 -49.6875 C 51.976562 -46.851562 52.6875 -43.8125 52.6875 -40.5625 L 52.6875 -22.59375 C 52.6875 -19.238281 51.976562 -16.101562 50.5625 -13.1875 C 49.144531 -10.269531 47.226562 -7.722656 44.8125 -5.546875 C 42.394531 -3.367188 39.648438 -1.675781 36.578125 -0.46875 C 33.503906 0.738281 30.316406 1.34375 27.015625 1.34375 C 23.804688 1.34375 20.664062 0.738281 17.59375 -0.46875 C 14.53125 -1.675781 11.773438 -3.367188 9.328125 -5.546875 C 6.890625 -7.722656 4.945312 -10.269531 3.5 -13.1875 C 2.0625 -16.101562 1.34375 -19.238281 1.34375 -22.59375 L 1.34375 -40.5625 C 1.34375 -43.8125 2.0625 -46.851562 3.5 -49.6875 C 4.945312 -52.519531 6.890625 -55 9.328125 -57.125 C 11.773438 -59.257812 14.53125 -60.925781 17.59375 -62.125 C 20.664062 -63.332031 23.804688 -63.9375 27.015625 -63.9375 Z M 32.28125 -23.390625 L 32.28125 -39.140625 C 32.28125 -40.554688 31.753906 -41.773438 30.703125 -42.796875 C 29.660156 -43.828125 28.429688 -44.34375 27.015625 -44.34375 C 25.546875 -44.34375 24.3125 -43.828125 23.3125 -42.796875 C 22.3125 -41.773438 21.8125 -40.554688 21.8125 -39.140625 L 21.8125 -23.390625 C 21.8125 -22.078125 22.3125 -20.90625 23.3125 -19.875 C 24.3125 -18.851562 25.546875 -18.34375 27.015625 -18.34375 C 28.429688 -18.34375 29.660156 -18.851562 30.703125 -19.875 C 31.753906 -20.90625 32.28125 -22.078125 32.28125 -23.390625 Z M 32.28125 -23.390625 "/></g></g></g></svg>